<svg width="736" height="659" viewBox="0 0 736 659" fill="none" xmlns="http://www.w3.org/2000/svg">
<path d="M338 224C338 220.134 341.134 217 345 217H497C500.866 217 504 220.134 504 224V376C504 379.866 500.866 383 497 383H345C341.134 383 338 379.866 338 376V224Z" fill="white"/>
<path d="M195 424C195 420.134 198.134 417 202 417H312C315.866 417 319 420.134 319 424V534C319 537.866 315.866 541 312 541H202C198.134 541 195 537.866 195 534V424Z" fill="white"/>
<path d="M257 521C280.196 521 299 502.196 299 479C299 455.804 280.196 437 257 437C233.804 437 215 455.804 215 479C215 502.196 233.804 521 257 521Z" fill="#7D2AE7"/>
<path d="M257 521C280.196 521 299 502.196 299 479C299 455.804 280.196 437 257 437C233.804 437 215 455.804 215 479C215 502.196 233.804 521 257 521Z" fill="url(#paint0_radial_1_802)"/>
<path d="M257 521C280.196 521 299 502.196 299 479C299 455.804 280.196 437 257 437C233.804 437 215 455.804 215 479C215 502.196 233.804 521 257 521Z" fill="url(#paint1_radial_1_802)"/>
<path d="M257 521C280.196 521 299 502.196 299 479C299 455.804 280.196 437 257 437C233.804 437 215 455.804 215 479C215 502.196 233.804 521 257 521Z" fill="url(#paint2_radial_1_802)"/>
<path d="M257 521C280.196 521 299 502.196 299 479C299 455.804 280.196 437 257 437C233.804 437 215 455.804 215 479C215 502.196 233.804 521 257 521Z" fill="url(#paint3_radial_1_802)"/>
<path d="M275.133 487.616C274.786 487.616 274.481 487.908 274.163 488.548C270.579 495.816 264.388 500.959 257.223 500.959C248.939 500.959 243.809 493.481 243.809 483.15C243.809 465.65 253.559 455.532 262.124 455.532C266.126 455.532 268.569 458.047 268.569 462.049C268.569 466.799 265.871 469.314 265.871 470.989C265.871 471.741 266.339 472.196 267.266 472.196C270.993 472.196 275.366 467.914 275.366 461.865C275.366 456 270.261 451.688 261.697 451.688C247.544 451.688 234.965 464.81 234.965 482.966C234.965 497.02 242.99 506.307 255.372 506.307C268.515 506.307 276.114 493.231 276.114 488.986C276.114 488.046 275.634 487.616 275.133 487.616Z" fill="white"/>
<path d="M0 6.99999C0 3.134 3.13401 0 7 0H257C260.866 0 264 3.13401 264 7V257C264 260.866 260.866 264 257 264H6.99999C3.134 264 0 260.866 0 257V6.99999Z" fill="white"/>
<path d="M97.9748 240.045C116.747 240.045 131.983 224.806 131.983 206.03V172.015H97.9748C79.2022 172.015 63.9664 187.253 63.9664 206.03C63.9664 224.806 79.2022 240.045 97.9748 240.045Z" fill="#0ACF83"/>
<path d="M63.9664 138C63.9664 119.223 79.2022 103.984 97.9748 103.984H131.983V172.015H97.9748C79.2022 172.015 63.9664 156.776 63.9664 138Z" fill="#A259FF"/>
<path d="M63.9664 69.9693C63.9664 51.1929 79.2022 35.9541 97.9748 35.9541H131.983V103.984H97.9748C79.2022 103.984 63.9664 88.7457 63.9664 69.9693Z" fill="#F24E1E"/>
<path d="M131.983 35.9541H165.992C184.764 35.9541 200 51.1929 200 69.9693C200 88.7457 184.764 103.984 165.992 103.984H131.983V35.9541Z" fill="#FF7262"/>
<path d="M200 138C200 156.776 184.764 172.015 165.992 172.015C147.219 172.015 131.983 156.776 131.983 138C131.983 119.223 147.219 103.984 165.992 103.984C184.764 103.984 200 119.223 200 138Z" fill="#1ABCFE"/>
<path d="M500 430C500 426.134 503.134 423 507 423H729C732.866 423 736 426.134 736 430V652C736 655.866 732.866 659 729 659H507C503.134 659 500 655.866 500 652V430Z" fill="white"/>
<path d="M570.154 469H665.538C680 469 691.692 480.692 691.692 495.154V586.846C691.692 601.308 680 613 665.538 613H570.154C555.692 613 544 601.308 544 586.846V495.154C544 480.692 555.692 469 570.154 469Z" fill="#470137"/>
<path d="M621.662 506.846L603.2 537.307L622.892 569.615C623.015 569.861 623.077 570.107 623.015 570.354C622.954 570.6 622.708 570.415 622.338 570.477H608.246C607.262 570.477 606.585 570.415 606.154 569.8C604.862 567.215 603.508 564.692 602.215 562.107C600.923 559.584 599.508 557 598.031 554.354C596.554 551.707 595.077 549.061 593.6 546.354H593.477C592.185 549 590.769 551.646 589.354 554.292C587.938 556.938 586.523 559.584 585.169 562.169C583.754 564.754 582.338 567.4 580.923 569.923C580.677 570.538 580.185 570.6 579.508 570.6H565.969C565.723 570.6 565.538 570.723 565.538 570.415C565.477 570.169 565.538 569.923 565.662 569.738L584.8 538.354L566.154 506.784C565.969 506.538 565.908 506.292 566.031 506.169C566.154 505.984 566.4 505.923 566.646 505.923H580.615C580.923 505.923 581.231 505.984 581.477 506.046C581.723 506.169 581.908 506.354 582.092 506.6C583.262 509.246 584.615 511.892 586.031 514.538C587.508 517.184 588.923 519.769 590.462 522.354C591.938 524.938 593.292 527.523 594.585 530.169H594.708C596 527.461 597.354 524.815 598.708 522.231C600.062 519.646 601.477 517.061 602.892 514.477C604.308 511.892 605.662 509.246 607.015 506.723C607.077 506.477 607.2 506.231 607.385 506.107C607.631 505.984 607.877 505.923 608.185 505.984H621.169C621.477 505.923 621.785 506.107 621.846 506.415C621.908 506.477 621.785 506.723 621.662 506.846Z" fill="#FF61F6"/>
<path d="M650.092 571.769C645.538 571.831 640.984 570.908 636.861 569C632.984 567.215 629.784 564.261 627.569 560.631C625.292 556.877 624.184 552.2 624.184 546.6C624.123 542.046 625.292 537.554 627.569 533.615C629.908 529.615 633.292 526.292 637.354 524.077C641.661 521.677 646.831 520.508 652.923 520.508C653.231 520.508 653.661 520.508 654.215 520.569C654.769 520.631 655.384 520.631 656.123 520.692V501.246C656.123 500.815 656.308 500.569 656.738 500.569H669.231C669.538 500.508 669.784 500.754 669.846 501C669.846 501.061 669.846 501.123 669.846 501.123V559.708C669.846 560.815 669.908 562.046 669.969 563.4C670.092 564.692 670.154 565.923 670.215 566.969C670.215 567.4 670.031 567.769 669.6 567.954C666.4 569.308 663.015 570.292 659.569 570.908C656.431 571.461 653.292 571.769 650.092 571.769ZM656.123 559.461V532.385C655.569 532.261 655.015 532.138 654.461 532.077C653.784 532.015 653.108 531.954 652.431 531.954C650.031 531.954 647.631 532.446 645.477 533.554C643.384 534.6 641.6 536.138 640.246 538.108C638.892 540.077 638.215 542.723 638.215 545.923C638.154 548.077 638.523 550.231 639.261 552.261C639.877 553.923 640.8 555.4 642.031 556.631C643.2 557.738 644.615 558.6 646.215 559.092C647.877 559.646 649.6 559.892 651.323 559.892C652.246 559.892 653.108 559.831 653.908 559.769C654.708 559.831 655.384 559.708 656.123 559.461Z" fill="#FF61F6"/>
<path d="M387.104 249.565L420.822 246L454.54 249.565L480.645 284.607L420.822 354.27L361 284.607L387.104 249.565Z" fill="#FDB300"/>
<path d="M385.231 284.607L420.822 354.27L361 284.607H385.231Z" fill="#EA6C00"/>
<path d="M456.414 284.607L420.822 354.27L480.645 284.607H456.414Z" fill="#EA6C00"/>
<path d="M385.231 284.607H456.414L420.822 354.27L385.231 284.607Z" fill="#FDAD00"/>
<path d="M420.822 246L387.104 249.565L385.231 284.607L420.822 246Z" fill="#FDD231"/>
<path d="M420.822 246L454.54 249.565L456.414 284.607L420.822 246Z" fill="#FDD231"/>
<path d="M480.645 284.607L454.54 249.564L456.414 284.607H480.645Z" fill="#FDAD00"/>
<path d="M361 284.607L387.104 249.564L385.231 284.607H361Z" fill="#FDAD00"/>
<path d="M420.822 246L385.231 284.607H456.414L420.822 246Z" fill="#FEEEB7"/>
<path d="M552 115C552 111.134 555.134 108 559 108H729C732.866 108 736 111.134 736 115V285C736 288.866 732.866 292 729 292H559C555.134 292 552 288.866 552 285V115Z" fill="white"/>
<path d="M604.031 139H684.379C696.561 139 706.41 148.849 706.41 161.031V238.269C706.41 250.451 696.561 260.3 684.379 260.3H604.031C591.849 260.3 582 250.451 582 238.269V161.031C582 148.849 591.849 139 604.031 139Z" fill="#001E36"/>
<path d="M609.992 224.065V170.725C609.992 170.362 610.148 170.154 610.511 170.154C611.392 170.154 612.221 170.154 613.414 170.102C614.658 170.051 615.954 170.051 617.353 169.999C618.753 169.947 620.256 169.947 621.863 169.895C623.47 169.843 625.025 169.843 626.58 169.843C630.831 169.843 634.356 170.362 637.259 171.45C639.851 172.331 642.235 173.783 644.205 175.701C645.864 177.36 647.16 179.381 647.989 181.61C648.767 183.788 649.182 186.017 649.182 188.349C649.182 192.807 648.145 196.488 646.071 199.391C643.998 202.294 641.095 204.471 637.725 205.715C634.2 207.011 630.313 207.477 626.062 207.477C624.818 207.477 623.988 207.477 623.47 207.426C622.952 207.374 622.226 207.374 621.241 207.374V224.014C621.293 224.376 621.034 224.687 620.671 224.739C620.619 224.739 620.567 224.739 620.464 224.739H610.614C610.2 224.739 609.992 224.532 609.992 224.065ZM621.293 180.159V197.576C622.019 197.628 622.693 197.68 623.315 197.68H626.062C628.084 197.68 630.105 197.369 632.023 196.747C633.682 196.28 635.134 195.296 636.274 194C637.363 192.704 637.881 190.941 637.881 188.66C637.933 187.053 637.518 185.446 636.689 184.047C635.807 182.699 634.563 181.662 633.06 181.092C631.142 180.314 629.069 180.003 626.943 180.055C625.595 180.055 624.403 180.055 623.418 180.107C622.382 180.055 621.656 180.107 621.293 180.159Z" fill="#31A8FF"/>
<path d="M681.528 194.415C679.973 193.585 678.314 193.015 676.552 192.652C674.634 192.237 672.716 191.978 670.746 191.978C669.709 191.926 668.621 192.082 667.636 192.341C666.962 192.497 666.392 192.859 666.029 193.378C665.769 193.792 665.614 194.311 665.614 194.777C665.614 195.244 665.821 195.71 666.132 196.125C666.599 196.695 667.221 197.162 667.895 197.525C669.087 198.147 670.331 198.717 671.575 199.235C674.374 200.168 677.07 201.464 679.558 203.02C681.269 204.108 682.669 205.56 683.653 207.322C684.483 208.981 684.898 210.795 684.846 212.661C684.898 215.098 684.172 217.534 682.824 219.556C681.373 221.629 679.351 223.236 677.018 224.169C674.478 225.258 671.368 225.828 667.636 225.828C665.251 225.828 662.918 225.621 660.586 225.154C658.771 224.843 656.957 224.273 655.298 223.495C654.935 223.288 654.676 222.925 654.728 222.511V213.491C654.728 213.335 654.78 213.128 654.935 213.024C655.091 212.921 655.246 212.972 655.402 213.076C657.424 214.268 659.549 215.098 661.83 215.616C663.8 216.134 665.873 216.394 667.947 216.394C669.916 216.394 671.316 216.134 672.249 215.668C673.079 215.305 673.649 214.424 673.649 213.491C673.649 212.765 673.234 212.091 672.405 211.417C671.575 210.743 669.865 209.966 667.325 208.981C664.681 208.048 662.244 206.804 659.964 205.249C658.357 204.108 657.009 202.605 656.024 200.842C655.195 199.184 654.78 197.369 654.832 195.555C654.832 193.326 655.454 191.201 656.594 189.283C657.89 187.209 659.808 185.55 662.037 184.514C664.474 183.269 667.532 182.699 671.212 182.699C673.338 182.699 675.515 182.855 677.64 183.166C679.195 183.373 680.699 183.788 682.098 184.358C682.306 184.41 682.513 184.617 682.617 184.825C682.669 185.032 682.72 185.239 682.72 185.447V193.896C682.72 194.103 682.617 194.311 682.461 194.415C681.995 194.518 681.735 194.518 681.528 194.415Z" fill="#31A8FF"/>
<defs>
<radialGradient id="paint0_radial_1_802" cx="0" cy="0" r="1" gradientUnits="userSpaceOnUse" gradientTransform="translate(231.226 511.451) rotate(-49.416) scale(64.9669)">
<stop stop-color="#6420FF"/>
<stop offset="1" stop-color="#6420FF" stop-opacity="0"/>
</radialGradient>
<radialGradient id="paint1_radial_1_802" cx="0" cy="0" r="1" gradientUnits="userSpaceOnUse" gradientTransform="translate(237.238 446.549) rotate(54.703) scale(73.2621)">
<stop stop-color="#00C4CC"/>
<stop offset="1" stop-color="#00C4CC" stop-opacity="0"/>
</radialGradient>
<radialGradient id="paint2_radial_1_802" cx="0" cy="0" r="1" gradientUnits="userSpaceOnUse" gradientTransform="translate(231.225 511.451) rotate(-45.1954) scale(64.1804 29.5174)">
<stop stop-color="#6420FF"/>
<stop offset="1" stop-color="#6420FF" stop-opacity="0"/>
</radialGradient>
<radialGradient id="paint3_radial_1_802" cx="0" cy="0" r="1" gradientUnits="userSpaceOnUse" gradientTransform="translate(249.352 448.318) rotate(66.5198) scale(66.1328 110.787)">
<stop stop-color="#00C4CC" stop-opacity="0.725916"/>
<stop offset="0.0001" stop-color="#00C4CC"/>
<stop offset="1" stop-color="#00C4CC" stop-opacity="0"/>
</radialGradient>
</defs>
</svg>
