<svg width="180" height="59" viewBox="0 0 180 59" fill="none" xmlns="http://www.w3.org/2000/svg">
<g id="Group 141">
<path id="Vector" d="M58.193 37.2254L47.9922 5.90006C46.532 1.41312 41.7101 -1.03829 37.2254 0.421927L5.90006 10.6227C1.41312 12.0829 -1.03829 16.9048 0.421927 21.3895L10.6227 52.7148C10.8422 53.3895 11.1402 54.0179 11.4983 54.5956L20.8534 35.5989C21.9879 33.293 24.7789 32.3434 27.0848 33.4802L27.8957 33.8799C30.2016 35.0143 31.1512 37.8054 30.0145 40.1112L21.0614 58.29C21.17 58.26 21.2786 58.2276 21.3871 58.193L52.7125 47.9922C57.1995 46.532 59.6509 41.7101 58.1907 37.2254H58.193ZM32.7431 30.3726C28.8893 30.4765 25.6823 27.436 25.5807 23.5844C25.4767 19.7305 28.5173 16.5236 32.3688 16.4219C36.2227 16.318 39.4296 19.3586 39.5313 23.2101C39.6353 27.064 36.5947 30.2709 32.7431 30.3726Z" fill="url(#paint0_radial_130_475)"/>
<g id="Group">
<path id="Vector_2" d="M64.3823 23.1982C64.3823 20.83 65.5329 19.855 67.9705 19.855C69.1558 19.855 70.2001 20.3078 70.8262 21.3522L80.8236 37.4793H80.893V22.6068C80.893 20.7607 81.9373 19.855 83.6447 19.855C85.3522 19.855 86.3965 20.7607 86.3965 22.6068V42.2874C86.3965 44.5516 85.4215 45.8409 83.0186 45.8409C81.2072 45.8409 80.6157 45.4573 79.8833 44.309L69.9552 28.6348H69.8859V43.0891C69.8859 44.9352 68.8415 45.8409 67.1341 45.8409C65.4267 45.8409 64.3823 44.9352 64.3823 43.0891V23.2005V23.1982Z" fill="#14191F"/>
<path id="Vector_3" d="M103.152 19.7124C111.372 19.7124 115.832 25.1813 115.832 32.5309C115.832 39.8805 111.721 45.9755 103.152 45.9755C94.5823 45.9755 90.4719 40.1231 90.4719 32.5309C90.4719 24.9387 94.9311 19.7124 103.152 19.7124ZM103.152 41.3777C108.341 41.3777 110.118 37.3367 110.118 32.5309C110.118 27.7251 107.819 24.3102 103.152 24.3102C98.4846 24.3102 96.1857 27.7228 96.1857 32.5309C96.1857 37.339 97.7869 41.3777 103.152 41.3777Z" fill="#14191F"/>
<path id="Vector_4" d="M131.573 19.7124C139.793 19.7124 144.253 25.1813 144.253 32.5309C144.253 36.223 143.139 39.7765 140.803 42.2141L142.998 44.2681C143.278 44.5107 143.451 44.8596 143.451 45.2431C143.451 46.2181 142.51 47.3687 141.501 47.3687C140.664 47.3687 140.352 47.0892 139.863 46.6363L137.668 44.5823C135.96 45.488 133.941 45.9755 131.573 45.9755C122.585 45.9755 118.893 40.1231 118.893 32.5309C118.893 24.9387 123.352 19.7124 131.573 19.7124ZM131.573 41.3777C132.444 41.3777 133.211 41.2737 133.872 41.0635L131.922 39.2521C131.642 39.0071 131.469 38.6606 131.469 38.277C131.469 37.302 132.409 36.1514 133.419 36.1514C134.255 36.1514 134.567 36.431 135.057 36.8838L137.042 38.6952C138.086 37.1287 138.539 34.9338 138.539 32.5309C138.539 27.7251 136.24 24.3102 131.573 24.3102C126.906 24.3102 124.607 27.7228 124.607 32.5309C124.607 37.339 126.208 41.3777 131.573 41.3777Z" fill="#14191F"/>
<path id="Vector_5" d="M148.43 22.7107C148.43 21.0033 149.544 19.855 151.286 19.855C153.028 19.855 154.142 21.0033 154.142 22.7107V42.9828C154.142 44.6902 153.028 45.8386 151.286 45.8386C149.544 45.8386 148.43 44.6879 148.43 42.9828V22.7107Z" fill="#14191F"/>
<path id="Vector_6" d="M165.046 21.5917C165.534 20.3025 166.44 19.8496 167.833 19.8496H169.191C170.481 19.8496 171.629 20.1638 172.257 21.9406L179.154 41.1337C179.362 41.6905 179.711 42.7002 179.711 43.3286C179.711 44.7218 178.491 45.8378 177.029 45.8378C175.774 45.8378 174.868 45.3849 174.45 44.2713L172.988 40.0917H163.792L162.295 44.2713C161.911 45.3849 161.109 45.8378 159.751 45.8378C158.184 45.8378 157.103 44.8628 157.103 43.3286C157.103 42.7025 157.452 41.6905 157.66 41.1337L165.044 21.5917H165.046ZM168.496 26.0509H168.427L165.049 36.1176H171.738L168.498 26.0509H168.496Z" fill="#14191F"/>
</g>
</g>
<defs>
<radialGradient id="paint0_radial_130_475" cx="0" cy="0" r="1" gradientUnits="userSpaceOnUse" gradientTransform="translate(29.3098 29.1457) scale(34.7033 34.7033)">
<stop stop-color="#2671FF"/>
<stop offset="0.32" stop-color="#2573FE"/>
<stop offset="0.5" stop-color="#227BFE"/>
<stop offset="0.64" stop-color="#1D89FE"/>
<stop offset="0.77" stop-color="#169DFE"/>
<stop offset="0.89" stop-color="#0DB6FE"/>
<stop offset="0.99" stop-color="#02D5FE"/>
<stop offset="1" stop-color="#02D8FE"/>
</radialGradient>
</defs>
</svg>
