<svg width="180" height="59" viewBox="0 0 180 59" fill="none" xmlns="http://www.w3.org/2000/svg">
<g id="Group 439">
<path id="Vector" d="M58.193 37.2254L47.9922 5.90006C46.532 1.41312 41.7101 -1.03829 37.2254 0.421927L5.90006 10.6227C1.41312 12.0829 -1.03829 16.9048 0.421927 21.3895L10.6227 52.7148C10.8422 53.3895 11.1402 54.0179 11.4983 54.5956L20.8534 35.5989C21.9879 33.293 24.7789 32.3434 27.0848 33.4802L27.8957 33.8799C30.2016 35.0143 31.1512 37.8054 30.0145 40.1112L21.0614 58.29C21.17 58.26 21.2786 58.2276 21.3871 58.193L52.7125 47.9922C57.1995 46.532 59.6509 41.7101 58.1907 37.2254H58.193ZM32.7431 30.3726C28.8893 30.4765 25.6823 27.436 25.5807 23.5844C25.4767 19.7305 28.5173 16.5236 32.3688 16.4219C36.2227 16.318 39.4296 19.3586 39.5313 23.2101C39.6353 27.064 36.5947 30.2709 32.7431 30.3726Z" fill="url(#paint0_radial_1_712)"/>
<g id="Group">
<path id="Vector_2" d="M64.3823 23.1987C64.3823 20.8305 65.5329 19.8555 67.9705 19.8555C69.1558 19.8555 70.2001 20.3083 70.8262 21.3527L80.8236 37.4797H80.893V22.6072C80.893 20.7612 81.9373 19.8555 83.6447 19.8555C85.3522 19.8555 86.3965 20.7612 86.3965 22.6072V42.2878C86.3965 44.5521 85.4215 45.8413 83.0186 45.8413C81.2072 45.8413 80.6157 45.4578 79.8833 44.3095L69.9552 28.6353H69.8859V43.0896C69.8859 44.9356 68.8415 45.8413 67.1341 45.8413C65.4267 45.8413 64.3823 44.9356 64.3823 43.0896V23.201V23.1987Z" fill="white"/>
<path id="Vector_3" d="M103.152 19.7129C111.372 19.7129 115.832 25.1818 115.832 32.5314C115.832 39.881 111.721 45.976 103.152 45.976C94.5821 45.976 90.4718 40.1236 90.4718 32.5314C90.4718 24.9392 94.931 19.7129 103.152 19.7129ZM103.152 41.3782C108.341 41.3782 110.118 37.3372 110.118 32.5314C110.118 27.7256 107.819 24.3107 103.152 24.3107C98.4845 24.3107 96.1856 27.7233 96.1856 32.5314C96.1856 37.3395 97.7868 41.3782 103.152 41.3782Z" fill="white"/>
<path id="Vector_4" d="M131.573 19.7129C139.793 19.7129 144.253 25.1818 144.253 32.5314C144.253 36.2235 143.139 39.777 140.803 42.2146L142.998 44.2686C143.278 44.5112 143.451 44.8601 143.451 45.2436C143.451 46.2186 142.511 47.3692 141.501 47.3692C140.665 47.3692 140.353 47.0897 139.863 46.6368L137.668 44.5828C135.96 45.4885 133.941 45.976 131.573 45.976C122.585 45.976 118.893 40.1236 118.893 32.5314C118.893 24.9392 123.352 19.7129 131.573 19.7129ZM131.573 41.3782C132.444 41.3782 133.211 41.2742 133.872 41.064L131.922 39.2525C131.642 39.0076 131.469 38.6611 131.469 38.2775C131.469 37.3025 132.409 36.1519 133.419 36.1519C134.255 36.1519 134.567 36.4315 135.057 36.8843L137.042 38.6957C138.086 37.1292 138.539 34.9343 138.539 32.5314C138.539 27.7256 136.24 24.3107 131.573 24.3107C126.906 24.3107 124.607 27.7233 124.607 32.5314C124.607 37.3395 126.208 41.3782 131.573 41.3782Z" fill="white"/>
<path id="Vector_5" d="M148.43 22.7112C148.43 21.0038 149.544 19.8555 151.286 19.8555C153.028 19.8555 154.142 21.0038 154.142 22.7112V42.9833C154.142 44.6907 153.028 45.839 151.286 45.839C149.544 45.839 148.43 44.6884 148.43 42.9833V22.7112Z" fill="white"/>
<path id="Vector_6" d="M165.047 21.5917C165.534 20.3025 166.44 19.8496 167.833 19.8496H169.192C170.481 19.8496 171.629 20.1638 172.258 21.9406L179.154 41.1337C179.362 41.6905 179.711 42.7002 179.711 43.3286C179.711 44.7218 178.491 45.8378 177.029 45.8378C175.774 45.8378 174.868 45.3849 174.45 44.2713L172.988 40.0917H163.792L162.295 44.2713C161.911 45.3849 161.109 45.8378 159.751 45.8378C158.184 45.8378 157.103 44.8628 157.103 43.3286C157.103 42.7025 157.452 41.6905 157.66 41.1337L165.044 21.5917H165.047ZM168.496 26.0509H168.427L165.049 36.1176H171.738L168.498 26.0509H168.496Z" fill="white"/>
</g>
</g>
<defs>
<radialGradient id="paint0_radial_1_712" cx="0" cy="0" r="1" gradientUnits="userSpaceOnUse" gradientTransform="translate(29.3098 29.1457) scale(34.7033 34.7033)">
<stop stop-color="#2671FF"/>
<stop offset="0.32" stop-color="#2573FE"/>
<stop offset="0.5" stop-color="#227BFE"/>
<stop offset="0.64" stop-color="#1D89FE"/>
<stop offset="0.77" stop-color="#169DFE"/>
<stop offset="0.89" stop-color="#0DB6FE"/>
<stop offset="0.99" stop-color="#02D5FE"/>
<stop offset="1" stop-color="#02D8FE"/>
</radialGradient>
</defs>
</svg>
