<svg width="24" height="21" viewBox="0 0 24 21" fill="none" xmlns="http://www.w3.org/2000/svg">
<path id="Vector" d="M23 1.82884C22.0424 2.50009 20.9821 3.01348 19.86 3.34926C19.2577 2.66111 18.4573 2.17336 17.567 1.95199C16.6767 1.73062 15.7395 1.7863 14.8821 2.11151C14.0247 2.43672 13.2884 3.01576 12.773 3.77032C12.2575 4.52488 11.9877 5.41855 12 6.33047V7.3242C10.2426 7.36949 8.50127 6.98217 6.93101 6.19676C5.36074 5.41134 4.01032 4.2522 3 2.82258C3 2.82258 -1 11.7662 8 15.7412C5.94053 17.1304 3.48716 17.8269 1 17.7286C10 22.6973 21 17.7286 21 6.30066C20.9991 6.02385 20.9723 5.74773 20.92 5.47585C21.9406 4.47565 22.6608 3.21283 23 1.82884Z" stroke="white" stroke-width="2" stroke-linecap="round" stroke-linejoin="round"/>
</svg>
